<svg xmlns="http://www.w3.org/2000/svg" xmlns:xlink="http://www.w3.org/1999/xlink" viewBox="0 0 1286 229.631">
  <defs>
    <style>
      .cls-1, .cls-3, .cls-4, .cls-9 {
        fill: #fff;
      }

      .cls-1 {
        stroke: #707070;
      }

      .cls-2 {
        fill: #295755;
      }

      .cls-21, .cls-3 {
        font-size: 12px;
        font-family: SegoeUI, Segoe UI;
      }

      .cls-4 {
        font-size: 17px;
        font-family: SegoeUI-Semibold, Segoe UI;
        font-weight: 600;
      }

      .cls-5 {
        opacity: 0.75;
      }

      .cls-6 {
        clip-path: url(#clip-path);
      }

      .cls-7 {
        fill: #3a67fa;
      }

      .cls-8 {
        fill: #2451d1;
      }

      .cls-10 {
        fill: #d1d1d1;
      }

      .cls-11 {
        fill: #4e598f;
      }

      .cls-12 {
        fill: #364270;
      }

      .cls-13 {
        fill: #cf4c3c;
      }

      .cls-14 {
        fill: #ad3228;
      }

      .cls-15 {
        fill: #4376b1;
      }

      .cls-16 {
        fill: #369;
      }

      .cls-17 {
        fill: #65a2d9;
      }

      .cls-18 {
        fill: #3a7ca5;
      }

      .cls-19 {
        fill: #6f3faa;
      }

      .cls-20 {
        fill: #512d84;
      }

      .cls-21 {
        fill: #6cf6f2;
        opacity: 0.8;
      }
    </style>
    <clipPath id="clip-path">
      <rect id="Rectangle_37" data-name="Rectangle 37" class="cls-1" width="35.825" height="35.825"/>
    </clipPath>
  </defs>
  <g id="footer2" transform="translate(-7.436 -9695.554)">
    <path id="Path_329" data-name="Path 329" class="cls-2" d="M0,9803.715s192.858-143.9,633.541-45.927S1286,9696.554,1286,9696.554v229.631H0Z" transform="translate(7.436 -1)"/>
    <text id="_1420_Legazpi_Street_Makati_City_Philippines" data-name="1420 Legazpi Street, Makati City, Philippines" class="cls-3" transform="translate(1021.436 9786)"><tspan x="0" y="13">1420 Legazpi Street, </tspan><tspan x="0" y="33">Makati City, Philippines</tspan></text>
    <text id="Location" class="cls-4" transform="translate(1021.436 9749)"><tspan x="0" y="18">Location</tspan></text>
    <g id="SocialMediaIcons" class="cls-5" transform="translate(497.118 9824)">
      <g id="Mask_Group_4" data-name="Mask Group 4" class="cls-6">
        <g id="behance">
          <circle id="Ellipse_40" data-name="Ellipse 40" class="cls-7" cx="17.913" cy="17.913" r="17.913"/>
          <path id="Path_294" data-name="Path 294" class="cls-8" d="M36.781,27.11l-8.126-8.126-6.18.95L17.69,15.648l-6.553.912L9.756,27.131l11.17,11.854A17.923,17.923,0,0,0,36.781,27.11Z" transform="translate(-1.989 -3.19)"/>
          <path id="Path_295" data-name="Path 295" class="cls-9" d="M18.3,19.871a3.43,3.43,0,0,0,.546-1.918,3.481,3.481,0,0,0-3.5-3.394h-5.28a.448.448,0,0,0-.448.448V26.619a.448.448,0,0,0,.448.448h5.9a3.959,3.959,0,0,0,2.332-7.2Zm-6.362-3h3.457a1.135,1.135,0,1,1,0,2.27H11.938Zm4.081,7.874H11.938V21.463h4.081a1.644,1.644,0,1,1,0,3.287Z" transform="translate(-1.962 -2.968)"/>
          <g id="Group_51" data-name="Group 51" transform="translate(18.665 12.083)">
            <path id="Path_296" data-name="Path 296" class="cls-10" d="M32.946,23.026a4.753,4.753,0,1,0-4.75,4.9,4.707,4.707,0,0,0,3.951-2.179,4.986,4.986,0,0,0,.3-.531.2.2,0,0,0-.181-.288l-2.335-.006a.2.2,0,0,0-.138.057,2.21,2.21,0,0,1-1.6.631,2.477,2.477,0,0,1-2.376-2.025h6.661a.465.465,0,0,0,.465-.465v-.1h0ZM28.2,20.439a2.4,2.4,0,0,1,2.034,1.17H26.161a2.4,2.4,0,0,1,2.035-1.17Z" transform="translate(-23.445 -15.778)"/>
            <path id="Path_297" data-name="Path 297" class="cls-10" d="M30.721,16.947H26.508a.356.356,0,0,1-.356-.356V15.534a.356.356,0,0,1,.356-.356h4.214a.356.356,0,0,1,.356.356v1.057a.356.356,0,0,1-.356.356Z" transform="translate(-23.997 -15.178)"/>
          </g>
        </g>
      </g>
      <g id="Mask_Group_5" data-name="Mask Group 5" class="cls-6" transform="translate(51.747)">
        <g id="facebook" transform="translate(0)">
          <circle id="Ellipse_41" data-name="Ellipse 41" class="cls-11" cx="17.913" cy="17.913" r="17.913"/>
          <path id="Path_298" data-name="Path 298" class="cls-12" d="M37.961,19.058l-8.437-8.44c-.14.042-.489-.12-.642-.089-3.619.6-7.117,0-10.615.965-1.689.483-1.809,2.533-2.412,3.86-.844,2.412-.724,5.066-1.809,7.358-.724,1.568-2.412,2.533-3.016,4.342-.2.755-.189,1.706-.417,2.427l8.465,8.461c.331.018.663.028,1,.028A17.913,17.913,0,0,0,37.989,20.059C37.989,19.723,37.979,19.389,37.961,19.058Z" transform="translate(-2.164 -2.146)"/>
          <g id="Group_52" data-name="Group 52" transform="translate(7.66 7.659)">
            <path id="Path_299" data-name="Path 299" class="cls-9" d="M27.364,9.621H12.384a2.763,2.763,0,0,0-2.763,2.763v14.98a2.763,2.763,0,0,0,2.763,2.763h7.388l.013-7.327h-1.9a.449.449,0,0,1-.449-.448l-.009-2.362a.449.449,0,0,1,.449-.451h1.9V17.257a3.729,3.729,0,0,1,3.98-4.091h1.939a.449.449,0,0,1,.449.449v1.992a.449.449,0,0,1-.449.449H24.5c-1.285,0-1.534.61-1.534,1.507v1.976h2.823a.449.449,0,0,1,.446.5l-.28,2.362a.449.449,0,0,1-.446.4H22.981l-.013,7.328h4.4a2.763,2.763,0,0,0,2.763-2.763V12.384a2.763,2.763,0,0,0-2.763-2.763Z" transform="translate(-9.621 -9.621)"/>
            <path id="Path_300" data-name="Path 300" class="cls-9" d="M22.367,33.5l.013-7.327h-.031V33.5Z" transform="translate(-12.216 -12.996)"/>
          </g>
          <path id="Path_301" data-name="Path 301" class="cls-10" d="M29.959,9.621h-7.61v9.918h.019V17.257a3.729,3.729,0,0,1,3.98-4.091h1.939a.449.449,0,0,1,.449.449v1.992a.449.449,0,0,1-.449.449H27.1c-1.285,0-1.534.61-1.534,1.507v1.976h2.823a.449.449,0,0,1,.446.5l-.28,2.362a.449.449,0,0,1-.446.4H25.576l-.013,7.328h4.4a2.763,2.763,0,0,0,2.763-2.763V12.384A2.763,2.763,0,0,0,29.959,9.621Z" transform="translate(-4.557 -1.962)"/>
        </g>
      </g>
      <g id="Mask_Group_6" data-name="Mask Group 6" class="cls-6" transform="translate(103.495)">
        <g id="google-plus">
          <circle id="Ellipse_42" data-name="Ellipse 42" class="cls-13" cx="17.913" cy="17.913" r="17.913"/>
          <path id="Path_302" data-name="Path 302" class="cls-14" d="M28.5,18.447l-2.555,3.074-4.811-5H14.488L11.8,19.431v6.291L24.716,38.648A17.949,17.949,0,0,0,37.234,27.181Z" transform="translate(-2.405 -3.368)"/>
          <path id="Path_303" data-name="Path 303" class="cls-9" d="M16.816,22.173h3.2a4.073,4.073,0,1,1-1.106-4.367.441.441,0,0,0,.6,0L20.691,16.7a.44.44,0,0,0,0-.64,6.534,6.534,0,0,0-4.38-1.8,6.56,6.56,0,1,0,6.419,6.928c.005-.043.008-1.506.008-1.506H16.816a.44.44,0,0,0-.44.44v1.611a.439.439,0,0,0,.439.44Z" transform="translate(-1.962 -2.907)"/>
          <path id="Path_304" data-name="Path 304" class="cls-10" d="M31.879,20.754V19.18a.385.385,0,0,0-.385-.385H30.169a.385.385,0,0,0-.385.385v1.574H28.21a.385.385,0,0,0-.386.385v1.325a.385.385,0,0,0,.386.385h1.574v1.574a.385.385,0,0,0,.385.385h1.325a.385.385,0,0,0,.385-.385V22.85h1.574a.385.385,0,0,0,.385-.385V21.14a.385.385,0,0,0-.385-.385Z" transform="translate(-5.673 -3.832)"/>
        </g>
      </g>
      <g id="Mask_Group_7" data-name="Mask Group 7" class="cls-6" transform="translate(155.242)">
        <g id="linkedin" transform="translate(0)">
          <circle id="Ellipse_43" data-name="Ellipse 43" class="cls-15" cx="17.913" cy="17.913" r="17.913"/>
          <path id="Path_305" data-name="Path 305" class="cls-16" d="M37.858,18.448,29.722,10.3a144.388,144.388,0,0,1-15.135.665c-2.051,0-4.1.965-3.739,3.257a40.454,40.454,0,0,1,.241,13.751,5.4,5.4,0,0,1-.778,1.753l8.128,8.128c.519.045,1.045.07,1.576.07A17.913,17.913,0,0,0,37.927,20.013C37.927,19.485,37.9,18.963,37.858,18.448Z" transform="translate(-2.102 -2.1)"/>
          <path id="Path_306" data-name="Path 306" class="cls-9" d="M28.272,9.621h-16.8a1.855,1.855,0,0,0-1.855,1.855v16.8a1.855,1.855,0,0,0,1.855,1.855h16.8a1.855,1.855,0,0,0,1.855-1.855v-16.8a1.855,1.855,0,0,0-1.855-1.855ZM15.967,27.327a.54.54,0,0,1-.54.54h-2.3a.54.54,0,0,1-.54-.54V17.7a.54.54,0,0,1,.54-.54h2.3a.54.54,0,0,1,.54.54v9.632Zm-1.689-11.08a2.183,2.183,0,1,1,2.183-2.183,2.183,2.183,0,0,1-2.183,2.183Zm13.7,11.124a.5.5,0,0,1-.5.5H25.013a.5.5,0,0,1-.5-.5V22.852c0-.674.2-2.953-1.761-2.953-1.52,0-1.828,1.56-1.89,2.26v5.211a.5.5,0,0,1-.5.5H17.984a.5.5,0,0,1-.5-.5V17.651a.5.5,0,0,1,.5-.5h2.385a.5.5,0,0,1,.5.5v.84a3.385,3.385,0,0,1,3.184-1.5c3.948,0,3.926,3.689,3.926,5.716v4.662h0Z" transform="translate(-1.962 -1.962)"/>
          <path id="Path_307" data-name="Path 307" class="cls-10" d="M30.888,9.621H22.45v7.534h.535a.5.5,0,0,1,.5.5v.84a3.385,3.385,0,0,1,3.184-1.5c3.948,0,3.926,3.689,3.926,5.716v4.662a.5.5,0,0,1-.5.5H27.629a.5.5,0,0,1-.5-.5V22.852c0-.674.2-2.953-1.761-2.953-1.52,0-1.828,1.56-1.89,2.26v5.211a.5.5,0,0,1-.5.5H22.45v2.26h8.438a1.855,1.855,0,0,0,1.855-1.855v-16.8A1.855,1.855,0,0,0,30.888,9.621Z" transform="translate(-4.577 -1.962)"/>
        </g>
      </g>
      <g id="Mask_Group_8" data-name="Mask Group 8" class="cls-6" transform="translate(206.99)">
        <g id="twitter">
          <circle id="Ellipse_44" data-name="Ellipse 44" class="cls-17" cx="17.913" cy="17.913" r="17.913"/>
          <path id="Path_308" data-name="Path 308" class="cls-18" d="M29.483,12.245a34.917,34.917,0,0,0-5.245,5.028c-3.735,4.5-8.3,10.894-14.511,9.942L20.825,38.3A17.912,17.912,0,0,0,37.806,20.569Z" transform="translate(-1.983 -2.497)"/>
          <path id="Path_309" data-name="Path 309" class="cls-9" d="M29.8,13.772a8.106,8.106,0,0,1-1.414.477A4.407,4.407,0,0,0,29.551,12.4a.231.231,0,0,0-.338-.269,8.157,8.157,0,0,1-2.162.893.547.547,0,0,1-.135.017.573.573,0,0,1-.379-.144,4.42,4.42,0,0,0-2.925-1.1,4.725,4.725,0,0,0-1.4.216,4.284,4.284,0,0,0-2.887,3.086,4.717,4.717,0,0,0-.1,1.628.159.159,0,0,1-.04.124.164.164,0,0,1-.122.055h-.016a11.592,11.592,0,0,1-7.968-4.257.231.231,0,0,0-.379.03,4.426,4.426,0,0,0,.72,5.374,3.963,3.963,0,0,1-1.009-.391.231.231,0,0,0-.343.2,4.427,4.427,0,0,0,2.582,4.078h-.094a3.959,3.959,0,0,1-.745-.071.231.231,0,0,0-.264.3,4.43,4.43,0,0,0,3.5,3.014,8.158,8.158,0,0,1-4.569,1.388H9.963a.338.338,0,0,0-.331.255A.35.35,0,0,0,9.8,27.2a12.133,12.133,0,0,0,6.1,1.644,12.3,12.3,0,0,0,5.21-1.105,11.506,11.506,0,0,0,3.812-2.857,12.523,12.523,0,0,0,2.335-3.91,12.352,12.352,0,0,0,.793-4.279v-.067a.753.753,0,0,1,.282-.586,8.74,8.74,0,0,0,1.758-1.929.231.231,0,0,0-.286-.34Z" transform="translate(-1.962 -2.403)"/>
          <path id="Path_310" data-name="Path 310" class="cls-10" d="M32.417,13.772A8.11,8.11,0,0,1,31,14.248,4.407,4.407,0,0,0,32.166,12.4a.231.231,0,0,0-.338-.269,8.157,8.157,0,0,1-2.162.893.547.547,0,0,1-.135.017.573.573,0,0,1-.379-.144,4.42,4.42,0,0,0-2.925-1.1,4.725,4.725,0,0,0-1.4.216,4.283,4.283,0,0,0-2.378,1.857V28.239a11.455,11.455,0,0,0,5.086-3.356,12.524,12.524,0,0,0,2.335-3.91,12.352,12.352,0,0,0,.793-4.279v-.067a.753.753,0,0,1,.282-.586A8.741,8.741,0,0,0,32.7,14.111.231.231,0,0,0,32.417,13.772Z" transform="translate(-4.577 -2.403)"/>
        </g>
      </g>
      <g id="Mask_Group_9" data-name="Mask Group 9" class="cls-6" transform="translate(258.738)">
        <g id="viber">
          <circle id="Ellipse_45" data-name="Ellipse 45" class="cls-19" cx="17.913" cy="17.913" r="17.913"/>
          <path id="Path_311" data-name="Path 311" class="cls-20" d="M28.024,11.969c-4.36-1.053-8.728-2.285-13.2-.72-2.895,1.086-2.895,4.222-2.774,6.876,0,.724-.844,1.689-.483,2.533.724,2.412,1.327,4.825,3.86,6.031.362.241,0,.724.241,1.086-.121,0-.362.121-.362.241a8.062,8.062,0,0,1,.087,2.033l7.7,7.694A17.921,17.921,0,0,0,38.059,22Z" transform="translate(-2.34 -2.142)"/>
          <g id="Group_53" data-name="Group 53" transform="translate(7.993 7.66)">
            <path id="Path_312" data-name="Path 312" class="cls-9" d="M29.436,14.551l-.006-.024a6.84,6.84,0,0,0-4.618-4.443l-.022,0a25.663,25.663,0,0,0-9.659,0l-.023,0a6.843,6.843,0,0,0-4.618,4.443l-.005.024a18.907,18.907,0,0,0,0,8.144l.005.024A6.9,6.9,0,0,0,14.853,27.1v2.16a.868.868,0,0,0,1.494.6l2.188-2.275c.475.027.95.041,1.424.041a25.752,25.752,0,0,0,4.83-.458l.022,0a6.84,6.84,0,0,0,4.618-4.443l.006-.024A18.908,18.908,0,0,0,29.436,14.551ZM27.7,22.3a5.173,5.173,0,0,1-3.26,3.122,23.918,23.918,0,0,1-5.138.415.121.121,0,0,0-.091.037l-1.6,1.64-1.7,1.744a.2.2,0,0,1-.343-.137V25.546a.123.123,0,0,0-.1-.121h0a5.175,5.175,0,0,1-3.26-3.122,17.156,17.156,0,0,1,0-7.361,5.175,5.175,0,0,1,3.26-3.122,23.9,23.9,0,0,1,8.97,0,5.172,5.172,0,0,1,3.26,3.122A17.138,17.138,0,0,1,27.7,22.3Z" transform="translate(-10.04 -9.621)"/>
            <path id="Path_313" data-name="Path 313" class="cls-9" d="M24.009,25.1c-.2-.061-.391-.1-.568-.175a12.9,12.9,0,0,1-4.862-3.25,12.617,12.617,0,0,1-1.86-2.846c-.239-.485-.44-.989-.645-1.49a1.293,1.293,0,0,1,.378-1.273,2.99,2.99,0,0,1,1-.752.643.643,0,0,1,.8.191A10.366,10.366,0,0,1,19.5,17.248a.829.829,0,0,1-.232,1.123c-.094.064-.18.139-.268.211a.878.878,0,0,0-.2.213.584.584,0,0,0-.039.512,4.637,4.637,0,0,0,2.6,2.884,1.326,1.326,0,0,0,.667.162c.408-.048.54-.5.826-.729a.778.778,0,0,1,.937-.041c.3.191.593.4.883.6a10.078,10.078,0,0,1,.831.633.659.659,0,0,1,.2.816,2.759,2.759,0,0,1-1.186,1.306,2.867,2.867,0,0,1-.513.163C23.809,25.041,24.183,25.049,24.009,25.1Z" transform="translate(-11.258 -10.768)"/>
            <path id="Path_314" data-name="Path 314" class="cls-9" d="M22.4,14.539a4.878,4.878,0,0,1,4.8,4.034c.072.4.1.818.13,1.228a.288.288,0,0,1-.271.339c-.192,0-.279-.159-.292-.331-.025-.342-.042-.685-.089-1.023A4.289,4.289,0,0,0,23.215,15.2c-.268-.048-.542-.06-.813-.089-.171-.018-.4-.028-.434-.242a.293.293,0,0,1,.289-.33c.046,0,.093,0,.139,0C24.8,14.606,22.349,14.539,22.4,14.539Z" transform="translate(-12.471 -10.624)"/>
            <path id="Path_315" data-name="Path 315" class="cls-9" d="M26.157,19.6a1.1,1.1,0,0,1-.024.167.273.273,0,0,1-.513.028.724.724,0,0,1-.029-.232,2.908,2.908,0,0,0-.368-1.459,2.716,2.716,0,0,0-1.139-1.068,3.273,3.273,0,0,0-.907-.278c-.137-.023-.275-.036-.413-.055a.261.261,0,0,1-.248-.293.258.258,0,0,1,.287-.255,3.774,3.774,0,0,1,1.573.41,3.181,3.181,0,0,1,1.731,2.472c.007.05.02.1.023.151.009.125.015.25.025.414C26.153,19.627,26.147,19.433,26.157,19.6Z" transform="translate(-12.584 -10.952)"/>
            <path id="Path_316" data-name="Path 316" class="cls-9" d="M24.757,19.876a.3.3,0,0,1-.329-.292,3.016,3.016,0,0,0-.056-.383,1.079,1.079,0,0,0-.4-.625,1.043,1.043,0,0,0-.324-.157c-.147-.043-.3-.031-.447-.067a.274.274,0,0,1-.223-.318.288.288,0,0,1,.3-.232,1.651,1.651,0,0,1,1.691,1.644.76.76,0,0,1,0,.233.239.239,0,0,1-.215.2C24.556,19.88,24.848,19.87,24.757,19.876Z" transform="translate(-12.677 -11.289)"/>
          </g>
          <path id="Path_317" data-name="Path 317" class="cls-10" d="M29.912,15.021,29.907,15a6.37,6.37,0,0,0-2.061-3.073L26.5,13.119a4.844,4.844,0,0,1,1.683,2.294,17.137,17.137,0,0,1,0,7.361,5.173,5.173,0,0,1-3.26,3.122,23.918,23.918,0,0,1-5.138.415.121.121,0,0,0-.091.037l-1.6,1.64-1.7,1.744a.2.2,0,0,1-.343-.137V26.016a.123.123,0,0,0-.1-.121h0a4.843,4.843,0,0,1-2.241-1.443l-1.332,1.18a6.756,6.756,0,0,0,2.951,1.935v2.16a.868.868,0,0,0,1.494.6l2.188-2.275c.475.027.949.041,1.424.041a25.751,25.751,0,0,0,4.83-.458l.022,0a6.84,6.84,0,0,0,4.618-4.443l.006-.024A18.908,18.908,0,0,0,29.912,15.021Z" transform="translate(-2.524 -2.431)"/>
          <path id="Path_318" data-name="Path 318" class="cls-9" d="M26.041,27.615c.174-.054-.2-.061,0,0Z" transform="translate(-5.297 -5.622)"/>
          <path id="Path_319" data-name="Path 319" class="cls-10" d="M26.142,24.209a10.132,10.132,0,0,0-.831-.633c-.29-.207-.582-.411-.883-.6a.778.778,0,0,0-.937.041c-.286.234-.418.681-.826.729A1.327,1.327,0,0,1,22,23.582a4.318,4.318,0,0,1-1.9-1.509l-.991.878c.034.039.066.079.1.117a12.9,12.9,0,0,0,4.862,3.25c.177.073.368.114.568.175-.2-.061.174-.054,0,0a2.864,2.864,0,0,0,.513-.163,2.759,2.759,0,0,0,1.186-1.306A.659.659,0,0,0,26.142,24.209Z" transform="translate(-3.896 -4.501)"/>
          <g id="Group_54" data-name="Group 54" transform="translate(17.917 11.575)">
            <path id="Path_320" data-name="Path 320" class="cls-9" d="M22.512,14.54h0Z" transform="translate(-22.506 -14.539)"/>
            <path id="Path_321" data-name="Path 321" class="cls-9" d="M22.506,14.539h.006C22.646,14.544,24.812,14.6,22.506,14.539Z" transform="translate(-22.506 -14.539)"/>
          </g>
          <g id="Group_55" data-name="Group 55" transform="translate(20.081 13.003)">
            <path id="Path_322" data-name="Path 322" class="cls-10" d="M26.724,16.333l-.422.374a4.239,4.239,0,0,1,1.252,2.444c.047.339.064.682.089,1.023.013.173.1.334.292.331a.288.288,0,0,0,.271-.339c-.032-.41-.058-.824-.13-1.228A4.82,4.82,0,0,0,26.724,16.333Z" transform="translate(-25.443 -16.333)"/>
            <path id="Path_323" data-name="Path 323" class="cls-10" d="M26.66,19.264a3.2,3.2,0,0,0-1.015-1.975l-.421.373a2.737,2.737,0,0,1,.551.671,2.908,2.908,0,0,1,.368,1.459.725.725,0,0,0,.029.232A.273.273,0,0,0,26.685,20a1.1,1.1,0,0,0,.024-.167c0,.03-.01-.165,0,0-.01-.165-.016-.29-.025-.414C26.68,19.364,26.668,19.315,26.66,19.264Z" transform="translate(-25.224 -16.528)"/>
          </g>
          <g id="Group_56" data-name="Group 56" transform="translate(20.001 16.238)">
            <path id="Path_324" data-name="Path 324" class="cls-9" d="M27.088,20.463c-.01-.165,0,.03,0,0Z" transform="translate(-25.522 -20.396)"/>
            <path id="Path_325" data-name="Path 325" class="cls-9" d="M25.207,20.407l.009,0h-.009Z" transform="translate(-25.135 -20.398)"/>
            <path id="Path_326" data-name="Path 326" class="cls-9" d="M25.195,20.407h-.026C25.126,20.406,25.081,20.409,25.195,20.407Z" transform="translate(-25.123 -20.398)"/>
            <path id="Path_327" data-name="Path 327" class="cls-9" d="M25.223,20.4l-.009,0C25.237,20.4,25.235,20.4,25.223,20.4Z" transform="translate(-25.141 -20.398)"/>
          </g>
          <path id="Path_328" data-name="Path 328" class="cls-10" d="M24.571,18.24l-.429.38c.024.014.047.029.069.046a1.079,1.079,0,0,1,.4.625,3.038,3.038,0,0,1,.056.383.293.293,0,0,0,.3.29H25a.238.238,0,0,0,.205-.194.76.76,0,0,0,0-.233A1.7,1.7,0,0,0,24.571,18.24Z" transform="translate(-4.922 -3.719)"/>
        </g>
      </g>
    </g>
    <text id="AROUND_THE_WEB" data-name="AROUND THE WEB" class="cls-4" transform="translate(568.904 9749)"><tspan x="0" y="18">AROUND THE WEB</tspan></text>
    <text id="_Home_About_Portfolio_Services_Testimonials_Contact" data-name="• Home
• About
• Portfolio
• Services
• Testimonials
• Contact" class="cls-21" transform="translate(139.436 9774)"><tspan x="0" y="13">• Home</tspan><tspan x="0" y="33">• About</tspan><tspan x="0" y="53">• Portfolio</tspan><tspan x="0" y="73">• Services</tspan><tspan x="0" y="93">• Testimonials</tspan><tspan x="0" y="113">• Contact</tspan></text>
    <text id="Quick_links" data-name="Quick links" class="cls-4" transform="translate(139.436 9749)"><tspan x="0" y="18">Quick links</tspan></text>
  </g>
</svg>
