<svg xmlns="http://www.w3.org/2000/svg" viewBox="0 0 1280 124.838">
  <defs>
    <style>
      .cls-1, .cls-2 {
        fill: #58b2af;
      }

      .cls-1, .cls-3 {
        opacity: 0.46;
      }

      .cls-3 {
        fill: rgba(119,119,119,0.22);
      }
    </style>
  </defs>
  <g id="TestimonialFooterDesign" transform="translate(0)">
    <path id="Path_153" data-name="Path 153" class="cls-1" d="M138,7075.069s340.012,80.377,738.052,54.23,482.453-23.242,541.748-10.652c.449,32.412,0,41.642,0,41.642s-48.831-51.325-541.748,0S138,7100.249,138,7100.249Z" transform="translate(-138 -7068.97)"/>
    <path id="Path_154" data-name="Path 154" class="cls-2" d="M138,7135.581c4.539-5.329,346.227-135.346,733-22.971s546.831-23.208,546.831-23.208v76.167s-219.316,50.3-546.831-24.615-553.327-33.177-733,24.615C138.027,7138.92,138,7135.581,138,7135.581Z" transform="translate(-138 -7067.007)"/>
    <path id="Path_155" data-name="Path 155" class="cls-3" d="M0,0S340.012,80.377,738.052,54.23,1220.5,30.989,1279.8,43.578c.449,32.412,0,41.642,0,41.642s-48.831-51.325-541.748,0S0,25.18,0,25.18Z" transform="translate(1280 124.838) rotate(180)"/>
  </g>
</svg>
